<?xml version="1.0" encoding="UTF-8"?>
<svg id="Layer_2" data-name="Layer 2" xmlns="http://www.w3.org/2000/svg" viewBox="0 0 797 619">
  <defs>
    <style>
      .cls-1 {
        fill: #eaeaea;
      }
    </style>
  </defs>
  <g id="Layer_1-2" data-name="Layer 1">
    <path class="cls-1" d="M309,619c-6.4,0-12.8-2.44-17.68-7.32L7.32,327.68c-9.76-9.76-9.76-25.59,0-35.36L291.32,8.32c9.76-9.76,25.59-9.76,35.36,0l284,284c9.76,9.76,9.76,25.59,0,35.36l-284,284c-4.88,4.88-11.28,7.32-17.68,7.32ZM60.36,310l248.64,248.64,248.64-248.64L309,61.36,60.36,310Z"/>
    <path class="cls-1" d="M488,618c-6.4,0-12.8-2.44-17.68-7.32l-89-89c-9.76-9.76-9.76-25.59,0-35.36,9.76-9.76,25.59-9.76,35.36,0l71.32,71.32,248.64-248.64L488,60.36l-72.32,72.32c-9.76,9.76-25.59,9.76-35.36,0-9.76-9.76-9.76-25.59,0-35.36L470.32,7.32c9.76-9.76,25.59-9.76,35.36,0l284,284c9.76,9.76,9.76,25.59,0,35.36l-284,284c-4.88,4.88-11.28,7.32-17.68,7.32Z"/>
  </g>
</svg>